<?xml version="1.0" standalone="no"?><!DOCTYPE svg PUBLIC "-//W3C//DTD SVG 1.1//EN" "http://www.w3.org/Graphics/SVG/1.1/DTD/svg11.dtd"><svg t="1638545500497" class="icon" viewBox="0 0 1024 1024" version="1.1" xmlns="http://www.w3.org/2000/svg" p-id="11739" xmlns:xlink="http://www.w3.org/1999/xlink" width="200" height="200"><defs><style type="text/css"></style></defs><path d="M1024 512c0 282.781538-229.218462 512-512 512S0 794.781538 0 512 229.218462 0 512 0c282.742154 0 512 229.218462 512 512zM512.433231 242.569846a147.219692 147.219692 0 0 0-144.935385 123.864616 115.908923 115.908923 0 0 0-34.422154-5.001847c-31.980308 0-61.243077 12.603077-82.313846 33.792a117.484308 117.484308 0 0 0-34.107077 82.668308c0 29.420308 11.224615 57.698462 31.350154 79.123692l-27.726769 28.081231a128.196923 128.196923 0 0 0-27.766154 40.763077 127.724308 127.724308 0 0 0-9.373538 49.112615v34.579693c0 9.058462 2.717538 18.510769 8.034461 26.072615 5.907692 8.192 14.099692 13.784615 25.009231 15.478154h29.144615v9.255385a21.543385 21.543385 0 0 0 21.504 21.504h491.244308c11.697231 0 21.267692-9.570462 21.267692-21.504v-9.255385h29.380923a36.785231 36.785231 0 0 0 24.851693-15.478154c5.159385-7.561846 8.192-16.974769 8.192-26.072615v-34.579693c0-17.250462-3.347692-33.673846-9.570462-49.112615a125.755077 125.755077 0 0 0-27.726769-40.763077l-27.884308-28.081231a115.633231 115.633231 0 0 0 31.507692-79.163077 116.972308 116.972308 0 0 0-34.264615-82.628923 115.121231 115.121231 0 0 0-82.156308-33.792 119.335385 119.335385 0 0 0-34.73723 5.001847 146.786462 146.786462 0 0 0-144.502154-123.864616z m-65.929846 496.403692v-18.983384l-0.315077-1.969231v-75.815385a12.721231 12.721231 0 0 0-12.603077-12.878769 12.996923 12.996923 0 0 0-12.878769 12.878769v56.280616H365.489231a10.003692 10.003692 0 0 1-1.102769-4.844308v-45.646769c0-16.226462 2.756923-31.232 8.507076-45.056v-0.157539c3.505231-8.152615 8.034462-16.068923 13.666462-23.945846l0.275692-0.275692 0.315077-0.157538 0.157539-0.315077 0.157538-0.315077c3.465846-4.529231 7.246769-8.664615 11.342769-12.87877l45.961847-45.922461a147.219692 147.219692 0 0 0 134.931692 0l46.08 45.922461c3.938462 4.214154 7.876923 8.349538 11.224615 12.87877l0.315077 0.315077v0.315077l0.275692 0.157538 0.315077 0.275692c5.789538 7.876923 10.318769 15.753846 13.666462 23.945846v0.157539c5.592615 13.784615 8.467692 28.829538 8.467692 45.056v45.646769a12.130462 12.130462 0 0 1-0.905846 4.844308h-55.177846v-56.280616a12.996923 12.996923 0 0 0-12.918154-12.878769 12.721231 12.721231 0 0 0-12.603077 12.878769v75.815385l-0.275692 1.969231v18.983384h-131.702154z m-37.769847-349.932307a103.857231 103.857231 0 0 1 103.699693-103.739077 104.054154 104.054154 0 0 1 103.699692 103.739077c0 135.246769-207.399385 135.246769-207.399385 0z m327.483077 349.932307h-62.148923a38.912 38.912 0 0 0 19.416616-15.005538c6.340923-8.664615 9.688615-19.692308 9.688615-30.326154v-45.646769c0-18.825846-3.150769-36.824615-9.255385-53.681231 17.289846-0.315077 33.476923-4.529231 48.049231-11.224615l32.177231 31.822769c7.916308 7.876923 14.296615 17.211077 18.786462 27.451077 3.938462 10.161231 5.907692 21.070769 5.907692 32.610461v33.201231h-37.139692v-37.730461a12.760615 12.760615 0 0 0-12.721231-12.918154 12.957538 12.957538 0 0 0-12.721231 12.918154v68.52923z m-79.438769-326.57723c4.096-2.126769 8.192-3.662769 12.445539-5.001846 7.246769-2.363077 14.808615-3.544615 22.44923-3.544616a74.200615 74.200615 0 0 1 73.688616 74.003692c0 20.164923-8.507077 38.675692-21.700923 52.184616v-0.157539a72.861538 72.861538 0 0 1-51.987693 21.543385 75.224615 75.224615 0 0 1-14.887384-1.063385c-3.032615-0.905846-6.065231-1.693538-9.058462-2.756923-3.820308-4.253538-7.640615-8.782769-11.815384-12.878769l-40.96-41.235692 0.905846-0.787693a149.464615 149.464615 0 0 0 38.793846-69.395692l0.315077-0.945231v-0.590769l0.315077-0.590769 1.181538-6.065231v-0.787692l0.157539-0.551385 0.157538-1.378461z m-368.128 326.57723v-68.52923a13.115077 13.115077 0 0 0-13.036308-12.918154 12.957538 12.957538 0 0 0-12.760615 12.918154v37.769846h-36.982154v-33.240616c0-11.500308 1.851077-22.449231 5.907693-32.571076 4.096-9.728 10.318769-18.983385 18.983384-27.451077l31.980308-31.862154c14.572308 6.695385 30.759385 10.948923 48.049231 11.264a158.089846 158.089846 0 0 0-9.097847 53.681231v45.607384c0 10.633846 3.308308 21.661538 9.412924 30.326154 4.844308 6.971077 11.500308 12.288 19.416615 15.005538H288.689231z m79.163077-326.57723l0.275692 1.339077v0.630153l0.315077 0.433231v0.315077l1.063385 6.065231 0.157538 0.590769v0.157539l0.118154 0.43323 0.157539 0.945231c6.537846 26.072615 19.692308 50.018462 38.83323 69.435077l1.063385 0.748308-41.117538 41.235692c-4.253538 4.096-8.192 8.664615-11.815385 12.878769-2.756923 1.063385-6.065231 1.811692-9.058462 2.756923a73.137231 73.137231 0 0 1-14.729846 1.063385 72.861538 72.861538 0 0 1-51.987692-21.543385v0.157539a74.082462 74.082462 0 0 1 0-104.448c13.312-13.193846 31.822769-21.700923 51.987692-21.700923 8.034462 0 15.635692 1.181538 22.291693 3.505231 4.332308 1.181538 8.467692 2.875077 12.406153 5.001846z" fill="#3882F5" p-id="11740"></path></svg>