<?xml version="1.0" standalone="no"?><!DOCTYPE svg PUBLIC "-//W3C//DTD SVG 1.1//EN" "http://www.w3.org/Graphics/SVG/1.1/DTD/svg11.dtd"><svg t="1638545619767" class="icon" viewBox="0 0 1024 1024" version="1.1" xmlns="http://www.w3.org/2000/svg" p-id="13780" xmlns:xlink="http://www.w3.org/1999/xlink" width="200" height="200"><defs><style type="text/css"></style></defs><path d="M509.4912 513.1264m-450.816 0a450.816 450.816 0 1 0 901.632 0 450.816 450.816 0 1 0-901.632 0Z" fill="#8486F8" p-id="13781"></path><path d="M617.984 306.5856H404.736c-12.6464 0-22.9376-10.2912-22.9376-22.9376V220.7744c0-12.6464 10.2912-22.9376 22.9376-22.9376h213.248c12.6464 0 22.9376 10.2912 22.9376 22.9376V283.648c0 12.6976-10.2912 22.9376-22.9376 22.9376z" fill="#FFFFFF" p-id="13782"></path><path d="M702.72 253.8496h-18.944v58.0608c0 19.1488-15.5136 34.6624-34.6624 34.6624H373.5552c-19.1488 0-34.6624-15.5136-34.6624-34.6624V253.8496h-18.944c-42.24 0-76.4928 34.2528-76.4928 76.4928v394.4448c0 42.24 34.2528 76.4928 76.4928 76.4928h382.7712c42.24 0 76.4928-34.2528 76.4928-76.4928V330.3424c0-42.24-34.2528-76.4928-76.4928-76.4928z m-59.2384 385.9968H379.2384c-16.9984 0-30.7712-13.7728-30.7712-30.7712s13.7728-30.7712 30.7712-30.7712h264.2432c16.9984 0 30.7712 13.7728 30.7712 30.7712s-13.7728 30.7712-30.7712 30.7712z m0-121.088H379.2384c-16.9984 0-30.7712-13.7728-30.7712-30.7712s13.7728-30.7712 30.7712-30.7712h264.2432c16.9984 0 30.7712 13.7728 30.7712 30.7712s-13.7728 30.7712-30.7712 30.7712z" fill="#FFFFFF" p-id="13783"></path></svg>