<?xml version="1.0" standalone="no"?><!DOCTYPE svg PUBLIC "-//W3C//DTD SVG 1.1//EN" "http://www.w3.org/Graphics/SVG/1.1/DTD/svg11.dtd"><svg t="1638545467088" class="icon" viewBox="0 0 1024 1024" version="1.1" xmlns="http://www.w3.org/2000/svg" p-id="9664" xmlns:xlink="http://www.w3.org/1999/xlink" width="200" height="200"><defs><style type="text/css"></style></defs><path d="M722 845.8H209.9c-58.8 0-106.9-48.1-106.9-106.9v-568C103 112.1 151.1 64 209.9 64H722c58.8 0 106.9 48.1 106.9 106.9v568c0 58.8-48.1 106.9-106.9 106.9z" fill="#D6F3FA" p-id="9665"></path><path d="M561.2 678.2v148.9c0 10.2-8.4 18.6-18.6 18.6-10.2 0-18.6-8.4-18.6-18.6V678.2c0-10.2 8.4-18.6 18.6-18.6 10.3 0 18.6 8.4 18.6 18.6zM818 659.6c-10.2 0-18.6 8.4-18.6 18.6v148.9c0 10.2 8.4 18.6 18.6 18.6 10.2 0 18.6-8.4 18.6-18.6V678.2c0-10.2-8.4-18.6-18.6-18.6zM293.9 306H238c-10.2 0-18.6 8.4-18.6 18.6 0 10.2 8.4 18.6 18.6 18.6h55.8c10.2 0 18.6-8.4 18.6-18.6 0.1-10.3-8.3-18.6-18.5-18.6z m75.4-139.4v744.1c0 27.2-22.1 49.3-49.3 49.3H211.1c-27.2 0-49.3-22.1-49.3-49.3V166.6c0-27.2 22.1-49.3 49.3-49.3H320c27.2 0 49.3 22.1 49.3 49.3z m-44.1 0c0-2.8-2.3-5.1-5.1-5.1h-109c-2.8 0-5.1 2.3-5.1 5.1v744.1c0 2.8 2.3 5.1 5.1 5.1H320c2.8 0 5.1-2.3 5.1-5.1V166.6z m320.7 0v744.1c0 27.2-22.1 49.3-49.3 49.3h-109c-27.2 0-49.3-22.1-49.3-49.3V166.6c0-27.2 22.1-49.3 49.3-49.3h108.9c27.2 0 49.4 22.1 49.4 49.3z m-44.2 0c0-2.8-2.3-5.1-5.1-5.1h-109c-2.8 0-5.1 2.3-5.1 5.1v744.1c0 2.8 2.3 5.1 5.1 5.1h108.9c2.8 0 5.1-2.3 5.1-5.1V166.6z m321.6 0v744.1c0 27.2-22.1 49.3-49.3 49.3H765c-27.2 0-49.3-22.1-49.3-49.3V166.6c0-27.2 22.1-49.3 49.3-49.3h109c27.2 0 49.3 22.1 49.3 49.3z m-44.2 0c0-2.8-2.3-5.1-5.1-5.1H765c-2.8 0-5.1 2.3-5.1 5.1v744.1c0 2.8 2.3 5.1 5.1 5.1h109c2.8 0 5.1-2.3 5.1-5.1V166.6z" fill="#18BAE5" p-id="9666"></path></svg>